<svg width="312" height="253" viewBox="0 0 312 253" fill="none" xmlns="http://www.w3.org/2000/svg">
<mask id="mask0_18006_3363" style="mask-type:alpha" maskUnits="userSpaceOnUse" x="0" y="0" width="312" height="253">
<path d="M186.684 23.1597C250.198 61.0657 288.322 67.7927 305.088 118.262C321.853 168.731 306.004 231.544 245.98 247.019C185.955 262.493 184.326 236.837 93.7332 240.92C3.13918 245.003 -29.0488 113.229 31.8632 53.0927C92.7752 -7.04434 123.17 -14.7453 186.684 23.1597Z" fill="white"/>
</mask>
<g mask="url(#mask0_18006_3363)">
<path d="M136.748 210.238C183.53 210.238 221.455 172.314 221.455 125.531C221.455 78.7486 183.53 40.8246 136.748 40.8246C89.9662 40.8246 52.0422 78.7486 52.0422 125.531C52.0422 172.314 89.9662 210.238 136.748 210.238Z" fill="black"/>
<path d="M82.8082 130.36C83.0734 130.36 83.3277 130.254 83.5153 130.067C83.7028 129.879 83.8082 129.625 83.8082 129.36C83.8082 129.094 83.7028 128.84 83.5153 128.653C83.3277 128.465 83.0734 128.36 82.8082 128.36C82.5429 128.36 82.2886 128.465 82.101 128.653C81.9135 128.84 81.8082 129.094 81.8082 129.36C81.8082 129.625 81.9135 129.879 82.101 130.067C82.2886 130.254 82.5429 130.36 82.8082 130.36ZM83.9081 152.14C84.1734 152.14 84.4277 152.034 84.6152 151.847C84.8028 151.659 84.9081 151.405 84.9081 151.14C84.9081 150.874 84.8028 150.62 84.6152 150.433C84.4277 150.245 84.1734 150.14 83.9081 150.14C83.6429 150.14 83.3886 150.245 83.201 150.433C83.0135 150.62 82.9081 150.874 82.9081 151.14C82.9081 151.405 83.0135 151.659 83.201 151.847C83.3886 152.034 83.6429 152.14 83.9081 152.14ZM121.748 125.401C122.04 125.401 122.32 125.284 122.526 125.078C122.732 124.871 122.848 124.592 122.848 124.3C122.848 124.008 122.732 123.728 122.525 123.522C122.319 123.315 122.039 123.2 121.747 123.2C121.455 123.2 121.175 123.316 120.969 123.522C120.763 123.729 120.647 124.009 120.647 124.301C120.647 124.593 120.763 124.872 120.97 125.079C121.176 125.285 121.456 125.401 121.748 125.401ZM203.368 134.761C203.633 134.761 203.888 134.655 204.075 134.468C204.263 134.28 204.368 134.026 204.368 133.761C204.368 133.495 204.263 133.241 204.075 133.054C203.888 132.866 203.633 132.761 203.368 132.761C203.103 132.761 202.849 132.866 202.661 133.054C202.474 133.241 202.368 133.495 202.368 133.761C202.368 134.026 202.474 134.28 202.661 134.468C202.849 134.655 203.103 134.761 203.368 134.761ZM197.648 142.241C197.913 142.241 198.168 142.135 198.355 141.948C198.543 141.76 198.648 141.506 198.648 141.241C198.648 140.975 198.543 140.721 198.355 140.534C198.168 140.346 197.913 140.241 197.648 140.241C197.383 140.241 197.129 140.346 196.941 140.534C196.754 140.721 196.648 140.975 196.648 141.241C196.648 141.506 196.754 141.76 196.941 141.948C197.129 142.135 197.383 142.241 197.648 142.241ZM76.2081 151.04C76.4734 151.04 76.7277 150.934 76.9153 150.747C77.1028 150.559 77.2081 150.305 77.2081 150.04C77.2081 149.774 77.1028 149.52 76.9153 149.333C76.7277 149.145 76.4734 149.04 76.2081 149.04C75.9429 149.04 75.6886 149.145 75.501 149.333C75.3135 149.52 75.2081 149.774 75.2081 150.04C75.2081 150.305 75.3135 150.559 75.501 150.747C75.6886 150.934 75.9429 151.04 76.2081 151.04ZM110.968 104.84C111.233 104.84 111.488 104.734 111.675 104.547C111.863 104.359 111.968 104.105 111.968 103.84C111.968 103.574 111.863 103.32 111.675 103.133C111.488 102.945 111.233 102.84 110.968 102.84C110.703 102.84 110.449 102.945 110.261 103.133C110.074 103.32 109.968 103.574 109.968 103.84C109.968 104.105 110.074 104.359 110.261 104.547C110.449 104.734 110.703 104.84 110.968 104.84ZM76.6481 115.84C76.9134 115.84 77.1677 115.734 77.3553 115.547C77.5428 115.359 77.6481 115.105 77.6481 114.84C77.6481 114.574 77.5428 114.32 77.3553 114.133C77.1677 113.945 76.9134 113.84 76.6481 113.84C76.3829 113.84 76.1286 113.945 75.941 114.133C75.7535 114.32 75.6481 114.574 75.6481 114.84C75.6481 115.105 75.7535 115.359 75.941 115.547C76.1286 115.734 76.3829 115.84 76.6481 115.84ZM111.628 112.98C111.893 112.98 112.148 112.874 112.335 112.687C112.523 112.499 112.628 112.245 112.628 111.98C112.628 111.714 112.523 111.46 112.335 111.273C112.148 111.085 111.893 110.98 111.628 110.98C111.363 110.98 111.109 111.085 110.921 111.273C110.733 111.46 110.628 111.714 110.628 111.98C110.628 112.245 110.733 112.499 110.921 112.687C111.109 112.874 111.363 112.98 111.628 112.98ZM100.628 129.261C100.893 129.261 101.148 129.155 101.335 128.968C101.523 128.78 101.628 128.526 101.628 128.261C101.628 127.995 101.523 127.741 101.335 127.554C101.148 127.366 100.893 127.261 100.628 127.261C100.363 127.261 100.109 127.366 99.921 127.554C99.7335 127.741 99.6281 127.995 99.6281 128.261C99.6281 128.526 99.7335 128.78 99.921 128.968C100.109 129.155 100.363 129.261 100.628 129.261ZM134.728 129.48C134.993 129.48 135.248 129.374 135.435 129.187C135.623 128.999 135.728 128.745 135.728 128.48C135.728 128.214 135.623 127.96 135.435 127.773C135.248 127.585 134.993 127.48 134.728 127.48C134.463 127.48 134.209 127.585 134.021 127.773C133.834 127.96 133.728 128.214 133.728 128.48C133.728 128.745 133.834 128.999 134.021 129.187C134.209 129.374 134.463 129.48 134.728 129.48ZM127.028 79.6397C127.32 79.6397 127.6 79.5238 127.806 79.3175C128.012 79.1112 128.128 78.8314 128.128 78.5397C128.128 78.2479 128.012 77.9681 127.806 77.7618C127.6 77.5556 127.32 77.4397 127.028 77.4397C126.736 77.4397 126.457 77.5556 126.25 77.7618C126.044 77.9681 125.928 78.2479 125.928 78.5397C125.928 78.8314 126.044 79.1112 126.25 79.3175C126.457 79.5238 126.736 79.6397 127.028 79.6397ZM119.548 96.7997C119.84 96.7997 120.12 96.6838 120.326 96.4775C120.532 96.2712 120.648 95.9914 120.648 95.6997C120.648 95.4079 120.532 95.1281 120.326 94.9218C120.12 94.7155 119.84 94.5997 119.548 94.5997C119.256 94.5997 118.977 94.7155 118.77 94.9218C118.564 95.1281 118.448 95.4079 118.448 95.6997C118.448 95.9914 118.564 96.2712 118.77 96.4775C118.977 96.6838 119.256 96.7997 119.548 96.7997ZM156.948 85.7997C157.24 85.7997 157.52 85.6838 157.726 85.4775C157.932 85.2712 158.048 84.9914 158.048 84.6997C158.048 84.4079 157.932 84.1281 157.726 83.9218C157.52 83.7155 157.24 83.5997 156.948 83.5997C156.656 83.5997 156.377 83.7155 156.17 83.9218C155.964 84.1281 155.848 84.4079 155.848 84.6997C155.848 84.9914 155.964 85.2712 156.17 85.4775C156.377 85.6838 156.656 85.7997 156.948 85.7997ZM111.408 95.1607C111.673 95.1607 111.928 95.0553 112.115 94.8678C112.303 94.6802 112.408 94.4259 112.408 94.1607C112.408 93.8954 112.303 93.6411 112.115 93.4536C111.928 93.266 111.673 93.1607 111.408 93.1607C111.143 93.1607 110.889 93.266 110.701 93.4536C110.513 93.6411 110.408 93.8954 110.408 94.1607C110.408 94.4259 110.513 94.6802 110.701 94.8678C110.889 95.0553 111.143 95.1607 111.408 95.1607ZM146.168 65.2407C146.433 65.2407 146.688 65.1353 146.875 64.9478C147.063 64.7602 147.168 64.5059 147.168 64.2407C147.168 63.9754 147.063 63.7211 146.875 63.5335C146.688 63.346 146.433 63.2407 146.168 63.2407C145.903 63.2407 145.649 63.346 145.461 63.5335C145.274 63.7211 145.168 63.9754 145.168 64.2407C145.168 64.5059 145.274 64.7602 145.461 64.9478C145.649 65.1353 145.903 65.2407 146.168 65.2407ZM101.288 124.64C101.553 124.64 101.808 124.534 101.995 124.347C102.183 124.159 102.288 123.905 102.288 123.64C102.288 123.374 102.183 123.12 101.995 122.933C101.808 122.745 101.553 122.64 101.288 122.64C101.023 122.64 100.769 122.745 100.581 122.933C100.394 123.12 100.288 123.374 100.288 123.64C100.288 123.905 100.394 124.159 100.581 124.347C100.769 124.534 101.023 124.64 101.288 124.64ZM93.5882 74.7997C93.8799 74.7997 94.1597 74.6838 94.366 74.4775C94.5723 74.2712 94.6881 73.9914 94.6881 73.6997C94.6881 73.4079 94.5723 73.1281 94.366 72.9218C94.1597 72.7155 93.8799 72.5997 93.5882 72.5997C93.2964 72.5997 93.0166 72.7155 92.8103 72.9218C92.604 73.1281 92.4881 73.4079 92.4881 73.6997C92.4881 73.9914 92.604 74.2712 92.8103 74.4775C93.0166 74.6838 93.2964 74.7997 93.5882 74.7997ZM86.1082 91.9607C86.2527 91.9606 86.3958 91.9321 86.5293 91.8767C86.6627 91.8213 86.784 91.7402 86.8862 91.638C86.9883 91.5357 87.0693 91.4144 87.1246 91.2808C87.1798 91.1473 87.2082 91.0042 87.2081 90.8597C87.2081 90.7151 87.1796 90.572 87.1242 90.4386C87.0688 90.3051 86.9877 90.1838 86.8855 90.0816C86.7832 89.9795 86.6619 89.8985 86.5283 89.8432C86.3948 89.788 86.2517 89.7596 86.1071 89.7597C85.8153 89.7598 85.5354 89.8759 85.3291 90.0823C85.1228 90.2888 85.007 90.5688 85.0071 90.8607C85.0073 91.1525 85.1234 91.4324 85.3298 91.6387C85.5363 91.845 85.8163 91.9608 86.1082 91.9607ZM123.508 80.9607C123.653 80.9606 123.796 80.9321 123.929 80.8767C124.063 80.8213 124.184 80.7402 124.286 80.638C124.388 80.5357 124.469 80.4144 124.525 80.2808C124.58 80.1473 124.608 80.0042 124.608 79.8597C124.608 79.7151 124.58 79.572 124.524 79.4386C124.469 79.3051 124.388 79.1838 124.285 79.0816C124.183 78.9795 124.062 78.8985 123.928 78.8432C123.795 78.788 123.652 78.7596 123.507 78.7597C123.215 78.7598 122.935 78.8759 122.729 79.0823C122.523 79.2888 122.407 79.5688 122.407 79.8607C122.407 80.1525 122.523 80.4324 122.73 80.6387C122.936 80.845 123.216 80.9608 123.508 80.9607ZM68.7281 103.52C68.9934 103.52 69.2477 103.414 69.4353 103.227C69.6228 103.039 69.7281 102.785 69.7281 102.52C69.7281 102.254 69.6228 102 69.4353 101.813C69.2477 101.625 68.9934 101.52 68.7281 101.52C68.4629 101.52 68.2086 101.625 68.021 101.813C67.8335 102 67.7281 102.254 67.7281 102.52C67.7281 102.785 67.8335 103.039 68.021 103.227C68.2086 103.414 68.4629 103.52 68.7281 103.52ZM112.728 60.3997C112.993 60.3997 113.248 60.2943 113.435 60.1068C113.623 59.9192 113.728 59.6649 113.728 59.3997C113.728 59.1344 113.623 58.8801 113.435 58.6926C113.248 58.505 112.993 58.3997 112.728 58.3997C112.463 58.3997 112.209 58.505 112.021 58.6926C111.834 58.8801 111.728 59.1344 111.728 59.3997C111.728 59.6649 111.834 59.9192 112.021 60.1068C112.209 60.2943 112.463 60.3997 112.728 60.3997ZM111.848 76.2407C112.113 76.2407 112.368 76.1353 112.555 75.9478C112.743 75.7602 112.848 75.5059 112.848 75.2407C112.848 74.9754 112.743 74.7211 112.555 74.5335C112.368 74.346 112.113 74.2407 111.848 74.2407C111.583 74.2407 111.329 74.346 111.141 74.5335C110.953 74.7211 110.848 74.9754 110.848 75.2407C110.848 75.5059 110.953 75.7602 111.141 75.9478C111.329 76.1353 111.583 76.2407 111.848 76.2407ZM155.628 77.7807C155.893 77.7807 156.148 77.6753 156.335 77.4878C156.523 77.3002 156.628 77.0459 156.628 76.7807C156.628 76.5154 156.523 76.2611 156.335 76.0735C156.148 75.886 155.893 75.7807 155.628 75.7807C155.363 75.7807 155.109 75.886 154.921 76.0735C154.733 76.2611 154.628 76.5154 154.628 76.7807C154.628 77.0459 154.733 77.3002 154.921 77.4878C155.109 77.6753 155.363 77.7807 155.628 77.7807ZM135.828 89.6607C136.093 89.6607 136.348 89.5553 136.535 89.3678C136.723 89.1802 136.828 88.9259 136.828 88.6607C136.828 88.3954 136.723 88.1411 136.535 87.9536C136.348 87.766 136.093 87.6607 135.828 87.6607C135.563 87.6607 135.309 87.766 135.121 87.9536C134.934 88.1411 134.828 88.3954 134.828 88.6607C134.828 88.9259 134.934 89.1802 135.121 89.3678C135.309 89.5553 135.563 89.6607 135.828 89.6607ZM169.928 89.8797C170.193 89.8797 170.448 89.7743 170.635 89.5868C170.823 89.3992 170.928 89.1449 170.928 88.8797C170.928 88.6144 170.823 88.3601 170.635 88.1725C170.448 87.985 170.193 87.8797 169.928 87.8797C169.663 87.8797 169.409 87.985 169.221 88.1725C169.034 88.3601 168.928 88.6144 168.928 88.8797C168.928 89.1449 169.034 89.3992 169.221 89.5868C169.409 89.7743 169.663 89.8797 169.928 89.8797Z" fill="white"/>
<path d="M207.366 189.157L197.994 198.529L220.123 220.659L229.496 211.286L207.366 189.157Z" fill="#541F9D"/>
<path fill-rule="evenodd" clip-rule="evenodd" d="M184.521 196.772L205.902 175.391L215.567 185.056C217.121 186.609 217.993 188.717 217.993 190.914C217.993 193.111 217.121 195.218 215.567 196.772L205.902 206.437C204.348 207.99 202.241 208.863 200.044 208.863C197.847 208.863 195.74 207.99 194.186 206.437L184.521 196.772Z" fill="#BD93F7"/>
<path d="M223.541 206.437L215.567 214.41C209.277 220.701 209.277 230.9 215.567 237.191L248.762 270.385C255.053 276.676 265.252 276.676 271.542 270.385L279.516 262.412C285.806 256.122 285.806 245.922 279.516 239.632L246.321 206.437C240.03 200.147 229.831 200.147 223.541 206.437Z" fill="#BD93F7"/>
<path d="M195.211 186.081C228.291 153.001 228.291 99.3677 195.211 66.2877C162.131 33.2077 108.498 33.2077 75.4182 66.2877C42.3382 99.3677 42.3382 153.001 75.4182 186.081C108.498 219.161 162.131 219.161 195.211 186.081Z" stroke="#9854F6" stroke-width="20.711"/>
<mask id="mask1_18006_3363" style="mask-type:alpha" maskUnits="userSpaceOnUse" x="60" y="32" width="194" height="169">
<path d="M135.272 200.64C176.462 200.64 209.852 167.25 209.852 126.06C209.852 112.202 259.337 68.2227 252.752 57.1047C239.766 35.1777 167.735 32.1197 140.404 32.1197C99.2141 32.1197 60.6921 84.8707 60.6921 126.06C60.6921 167.25 94.0831 200.64 135.272 200.64Z" fill="white"/>
</mask>
<g mask="url(#mask1_18006_3363)">
<path fill-rule="evenodd" clip-rule="evenodd" d="M231.805 73.0347C232.269 77.3959 231.166 81.7799 228.694 85.4027L190.471 141.43L200.566 162.13C187.853 185.093 163.378 200.641 135.272 200.641C133.074 200.641 130.877 200.545 128.687 200.354L124.456 190.828L123.056 199.645C108.736 197.285 95.7921 190.847 85.4551 181.563L87.7701 157.725C88.0503 154.835 89.0409 152.06 90.6538 149.646C92.2667 147.232 94.4517 145.255 97.0141 143.891L136.928 122.632L163.435 99.5187L187.896 78.3097L128.992 79.6407L128.219 65.9377L152.83 62.8457L211.475 56.6117C221.624 55.5317 230.726 62.8857 231.805 73.0347Z" fill="white"/>
<path fill-rule="evenodd" clip-rule="evenodd" d="M128.268 129.099L119.84 109.249L137.963 101.559L146.39 121.408" fill="white"/>
<path d="M128.268 129.099L119.84 109.249L137.963 101.559L146.39 121.408" stroke="black" stroke-width="1.32" stroke-linecap="round" stroke-linejoin="round"/>
<mask id="mask2_18006_3363" style="mask-type:alpha" maskUnits="userSpaceOnUse" x="119" y="101" width="27" height="32">
<path d="M119.84 109.248L137.961 101.559L145.121 118.421C147.246 123.427 144.913 129.207 139.909 131.33C134.905 133.454 129.125 131.117 127 126.111L119.84 109.248Z" fill="white"/>
</mask>
<g mask="url(#mask2_18006_3363)">
<path d="M140.379 112.456C151.683 107.659 157.251 95.3006 152.816 84.8536C148.38 74.4066 135.621 69.8266 124.317 74.6236C113.013 79.4216 107.445 91.7786 111.881 102.226C116.316 112.673 129.075 117.253 140.379 112.456Z" fill="black"/>
</g>
<path d="M115.075 65.6097L109.994 67.7667C102.293 71.0337 98.7021 79.9277 101.973 87.6307L106.707 98.7817C109.978 106.485 118.871 110.08 126.571 106.812L131.652 104.656C139.352 101.388 142.943 92.4947 139.673 84.7917L134.938 73.6407C131.668 65.9377 122.775 62.3417 115.075 65.6097Z" fill="black"/>
<path fill-rule="evenodd" clip-rule="evenodd" d="M137.22 84.3277L138.945 83.2607C139.42 82.9671 139.957 82.7864 140.512 82.7327C141.068 82.679 141.629 82.7535 142.152 82.9507C142.675 83.1479 143.145 83.4624 143.527 83.8699C143.909 84.2775 144.192 84.7673 144.355 85.3017L144.404 85.4607C144.826 86.8414 144.821 88.3174 144.389 89.6952C143.958 91.073 143.12 92.2882 141.986 93.1817L141.232 93.7767L137.22 84.3277Z" fill="white" stroke="black" stroke-width="1.32" stroke-linecap="round" stroke-linejoin="round"/>
<path d="M140.404 86.3297L141.653 89.2716M141.189 88.1786L142.096 86.4837" stroke="black" stroke-width="1.32" stroke-linecap="round" stroke-linejoin="round"/>
<path fill-rule="evenodd" clip-rule="evenodd" d="M108.202 96.6447L106.237 97.1447C105.696 97.2821 105.193 97.542 104.768 97.9044C104.343 98.2668 104.007 98.722 103.785 99.2349C103.564 99.7477 103.463 100.305 103.491 100.862C103.519 101.42 103.675 101.964 103.946 102.453L104.027 102.599C104.727 103.861 105.793 104.883 107.084 105.53C108.375 106.177 109.831 106.419 111.262 106.224L112.214 106.095L108.202 96.6447Z" fill="white" stroke="black" stroke-width="1.32" stroke-linecap="round" stroke-linejoin="round"/>
<path d="M107.432 100.326L108.681 103.268M108.216 102.176L106.367 101.651" stroke="black" stroke-width="1.32" stroke-linecap="round" stroke-linejoin="round"/>
<path fill-rule="evenodd" clip-rule="evenodd" d="M135.31 79.8417L139.753 90.3057C143.155 98.3187 139.419 107.572 131.409 110.971C123.398 114.371 114.146 110.63 110.744 102.617L106.301 92.1527C102.899 84.1387 106.634 74.8867 114.645 71.4867C122.656 68.0877 131.908 71.8277 135.31 79.8417Z" fill="white" stroke="black" stroke-width="1.32" stroke-linecap="round" stroke-linejoin="round"/>
<path d="M128.442 103.025C129.749 102.471 130.782 101.422 131.315 100.107C131.848 98.792 131.836 97.3192 131.283 96.0126M123.119 93.7776L124.098 97.7426L126.287 97.2256" stroke="black" stroke-width="1.32" stroke-linecap="round" stroke-linejoin="round"/>
<path d="M115.353 95.7637C116.931 95.0947 117.899 93.8187 117.515 92.9137C117.131 92.0087 115.54 91.8177 113.962 92.4877C112.384 93.1577 111.417 94.4337 111.801 95.3387C112.185 96.2427 113.775 96.4337 115.353 95.7637Z" stroke="black" stroke-width="0.73" stroke-linecap="round" stroke-linejoin="round"/>
<path d="M115.353 95.7636C116.3 95.3616 116.756 94.3026 116.372 93.3976C115.988 92.4936 114.909 92.0856 113.962 92.4876C113.016 92.8896 112.56 93.9486 112.944 94.8526C113.328 95.7576 114.407 96.1656 115.353 95.7636Z" fill="black"/>
<path d="M131.18 89.0467C132.758 88.3767 133.726 87.1007 133.342 86.1957C132.957 85.2907 131.367 85.1007 129.789 85.7697C128.211 86.4397 127.243 87.7157 127.627 88.6207C128.011 89.5257 129.602 89.7157 131.18 89.0467Z" stroke="black" stroke-width="0.73" stroke-linecap="round" stroke-linejoin="round"/>
<path d="M131.18 89.0457C132.127 88.6437 132.583 87.5847 132.199 86.6807C131.815 85.7757 130.736 85.3677 129.789 85.7697C128.842 86.1717 128.386 87.2307 128.77 88.1347C129.154 89.0397 130.233 89.4477 131.18 89.0457Z" fill="black"/>
<path fill-rule="evenodd" clip-rule="evenodd" d="M119.021 60.5297C121.589 60.3077 123.096 61.5997 123.542 64.4027C126.633 63.6367 129.529 63.5107 132.23 64.0267C138.271 65.1807 140.536 71.7147 137.489 77.5297C137.752 78.9647 138.046 80.7127 138.372 82.7727C137.524 83.6677 136.924 84.0537 136.574 83.9307C135.451 83.5312 134.386 82.9816 133.41 82.2967C130.688 84.4077 126.884 86.0487 121.875 86.7257C114.622 87.7067 109.9 86.7707 107.71 83.9207C108.219 88.4747 108.081 92.4017 107.296 95.7007C101.066 92.1807 97.7671 88.2347 97.4001 83.8627C97.0761 80.0057 98.6451 77.8277 102.105 77.3267C103.034 71.8047 111.927 61.1417 119.021 60.5297Z" fill="black"/>
<path d="M107.296 95.7006C101.652 92.3746 97.7671 88.2336 97.4001 83.8626C97.0761 80.0056 98.6451 77.8266 102.105 77.3266C103.035 71.8036 111.927 61.1416 119.021 60.5296C121.588 60.3076 123.096 61.5986 123.542 64.4026C126.633 63.6356 129.529 63.5107 132.23 64.0267C137.533 65.0397 138.933 70.7787 137.378 75.9577C137.752 78.0317 138.01 80.6376 138.372 82.7716" stroke="white" stroke-width="0.88" stroke-linecap="round" stroke-linejoin="round"/>
<path d="M125.628 197.951L121.857 190.295" stroke="black" stroke-width="1.32" stroke-linecap="round" stroke-linejoin="round"/>
<path d="M118.449 138.214L145.915 141.632L155.844 116.38" stroke="black" stroke-width="1.32" stroke-linejoin="round"/>
<path fill-rule="evenodd" clip-rule="evenodd" d="M147.769 48.1497L150 93.6777L166.693 91.9496L152.243 108.878L212.274 236.338L231.373 200.171L197.207 138.86L232.363 84.3546C240.265 72.1046 236.741 55.7626 224.494 47.8527C219.673 44.7376 213.967 43.28 208.242 43.7006L147.769 48.1497Z" fill="#EAEBED" stroke="black" stroke-width="1.32" stroke-linejoin="round"/>
<path d="M165.768 93.1027L175.412 80.9047" stroke="black" stroke-width="1.32" stroke-linecap="round" stroke-linejoin="round"/>
<path fill-rule="evenodd" clip-rule="evenodd" d="M163.562 96.0107L169.049 128.479L177.069 126.883C178.02 126.694 179 126.703 179.947 126.91C180.894 127.117 181.788 127.518 182.573 128.087C183.358 128.656 184.017 129.381 184.509 130.216C185.001 131.052 185.315 131.98 185.431 132.943L192.387 190.295" fill="#EAEBED"/>
<path d="M163.562 96.0107L169.049 128.479L177.069 126.883C178.02 126.694 179 126.703 179.947 126.91C180.894 127.117 181.788 127.518 182.573 128.087C183.358 128.656 184.017 129.381 184.509 130.216C185.001 131.052 185.315 131.98 185.431 132.943L192.387 190.295" stroke="black" stroke-width="1.32" stroke-linejoin="round"/>
<path fill-rule="evenodd" clip-rule="evenodd" d="M117.196 132.88L170.808 254.976L150.913 264.112L123.741 208.549L119.843 225.646L81.9351 212.289L87.6551 157.999C87.969 155.016 89.0048 152.154 90.6729 149.661C92.3411 147.168 94.5913 145.119 97.2291 143.691L117.196 132.88Z" fill="#EAEBED" stroke="black" stroke-width="1.32" stroke-linejoin="round"/>
<path d="M198.087 140.424L194.276 133.761" stroke="black" stroke-width="1.32" stroke-linecap="round" stroke-linejoin="round"/>
<path fill-rule="evenodd" clip-rule="evenodd" d="M103.967 139.497L123.505 162.106L118.597 173.67C118.135 174.759 117.974 175.953 118.131 177.126C118.289 178.299 118.758 179.408 119.491 180.338L158.048 229.23" fill="#EAEBED"/>
<path d="M103.967 139.497L123.505 162.106L118.597 173.67C118.135 174.759 117.974 175.953 118.131 177.126C118.289 178.299 118.758 179.408 119.491 180.338L158.048 229.23" stroke="black" stroke-width="1.32" stroke-linejoin="round"/>
</g>
<path fill-rule="evenodd" clip-rule="evenodd" d="M144.167 79.2217L96.6121 83.0917C94.971 83.2248 93.3411 82.7257 92.0558 81.6966C90.7706 80.6675 89.9272 79.1862 89.6981 77.5557C89.5871 76.7677 89.6325 75.9656 89.8316 75.1952C90.0306 74.4248 90.3795 73.7011 90.8583 73.0656C91.3371 72.43 91.9365 71.895 92.6221 71.4911C93.3077 71.0872 94.0661 70.8224 94.8541 70.7117L94.8811 70.7077L146.701 63.6647" fill="white"/>
<path d="M144.167 79.2217L96.6121 83.0917C94.971 83.2248 93.3411 82.7257 92.0558 81.6966C90.7706 80.6675 89.9272 79.1862 89.6981 77.5557C89.5871 76.7677 89.6325 75.9656 89.8316 75.1952C90.0306 74.4248 90.3795 73.7011 90.8583 73.0656C91.3371 72.43 91.9365 71.895 92.6221 71.4911C93.3077 71.0872 94.0661 70.8224 94.8541 70.7117L94.8811 70.7077L146.701 63.6647" stroke="black" stroke-width="1.716" stroke-linecap="round" stroke-linejoin="round"/>
<path fill-rule="evenodd" clip-rule="evenodd" d="M144.168 79.2206L110.838 81.2226C109.183 81.3217 107.552 80.7939 106.269 79.7442C104.986 78.6946 104.146 77.2002 103.915 75.5586C103.804 74.7719 103.85 73.971 104.049 73.2018C104.247 72.4326 104.596 71.7101 105.074 71.0755C105.552 70.4409 106.15 69.9066 106.835 69.5033C107.519 69.0999 108.276 68.8353 109.063 68.7246L109.099 68.7197L146.701 63.6656" fill="white"/>
<path d="M144.168 79.2206L110.838 81.2226C109.183 81.3217 107.552 80.7939 106.269 79.7442C104.986 78.6946 104.146 77.2002 103.915 75.5586C103.804 74.7719 103.85 73.971 104.049 73.2018C104.247 72.4326 104.596 71.7101 105.074 71.0755C105.552 70.4409 106.15 69.9066 106.835 69.5033C107.519 69.0999 108.276 68.8353 109.063 68.7246L109.099 68.7197L146.701 63.6656" stroke="black" stroke-width="1.32" stroke-linecap="round" stroke-linejoin="round"/>
<path d="M89.2782 173.837C89.6669 173.074 89.9015 172.242 89.9687 171.388C90.0359 170.535 89.9342 169.676 89.6696 168.862C89.405 168.047 88.9826 167.293 88.4265 166.642C87.8705 165.991 87.1916 165.456 86.4287 165.067C85.6657 164.678 84.8337 164.444 83.9801 164.377C83.1266 164.309 82.2681 164.411 81.4538 164.676C80.6394 164.94 79.8852 165.363 79.2341 165.919C78.5831 166.475 78.0479 167.154 77.6592 167.917L71.1442 180.703C70.7495 181.466 70.5098 182.3 70.4386 183.157C70.3675 184.013 70.4664 184.875 70.7296 185.693C70.9929 186.511 71.4153 187.27 71.9725 187.924C72.5298 188.578 73.2109 189.116 73.9767 189.506C74.7425 189.896 75.5779 190.131 76.4348 190.197C77.2917 190.263 78.1532 190.159 78.9698 189.891C79.7863 189.623 80.5419 189.196 81.1929 188.635C81.8439 188.074 82.3776 187.39 82.7632 186.622L89.2782 173.837Z" fill="white" stroke="black" stroke-width="1.32" stroke-linecap="round" stroke-linejoin="round"/>
<path d="M100.901 179.758C101.304 178.993 101.552 178.156 101.629 177.296C101.706 176.435 101.611 175.567 101.349 174.744C101.088 173.92 100.666 173.156 100.107 172.497C99.5478 171.838 98.8634 171.297 98.0933 170.904C97.3233 170.512 96.4829 170.277 95.6211 170.212C94.7593 170.148 93.8933 170.255 93.0734 170.528C92.2534 170.801 91.4959 171.234 90.8449 171.803C90.1939 172.371 89.6624 173.063 89.2812 173.839L82.7662 186.625C82.3716 187.388 82.1318 188.222 82.0606 189.079C81.9895 189.935 82.0884 190.797 82.3516 191.615C82.6149 192.434 83.0373 193.192 83.5945 193.846C84.1518 194.5 84.8329 195.038 85.5987 195.428C86.3645 195.818 87.1999 196.053 88.0568 196.119C88.9137 196.185 89.7752 196.081 90.5918 195.813C91.4083 195.545 92.1639 195.118 92.8149 194.557C93.4659 193.996 93.9996 193.312 94.3852 192.544L100.901 179.758Z" fill="white" stroke="black" stroke-width="1.32" stroke-linecap="round" stroke-linejoin="round"/>
<path d="M112.523 185.68C112.918 184.916 113.158 184.082 113.229 183.226C113.3 182.369 113.201 181.507 112.938 180.689C112.674 179.871 112.252 179.113 111.695 178.459C111.138 177.804 110.456 177.267 109.691 176.876C108.925 176.486 108.089 176.251 107.233 176.185C106.376 176.119 105.514 176.223 104.698 176.491C103.881 176.759 103.125 177.186 102.474 177.747C101.823 178.308 101.29 178.993 100.904 179.761L94.3882 192.547C93.9849 193.311 93.7377 194.148 93.6607 195.009C93.5838 195.869 93.6787 196.737 93.94 197.561C94.2012 198.384 94.6236 199.148 95.1826 199.807C95.7416 200.466 96.426 201.008 97.196 201.4C97.9661 201.792 98.8064 202.027 99.6682 202.092C100.53 202.157 101.396 202.049 102.216 201.776C103.036 201.503 103.793 201.07 104.444 200.502C105.095 199.933 105.627 199.241 106.008 198.466L112.523 185.68Z" fill="white" stroke="black" stroke-width="1.32" stroke-linecap="round" stroke-linejoin="round"/>
<path d="M124.145 191.602C124.54 190.838 124.78 190.004 124.851 189.148C124.922 188.291 124.823 187.429 124.56 186.611C124.296 185.793 123.874 185.035 123.317 184.381C122.76 183.726 122.078 183.189 121.313 182.798C120.547 182.408 119.711 182.173 118.855 182.107C117.998 182.041 117.136 182.145 116.32 182.413C115.503 182.681 114.747 183.108 114.096 183.669C113.445 184.23 112.912 184.915 112.526 185.683L106.011 198.468C105.622 199.231 105.388 200.063 105.321 200.916C105.253 201.77 105.355 202.628 105.62 203.443C105.884 204.257 106.307 205.011 106.863 205.662C107.419 206.313 108.098 206.848 108.861 207.237C109.624 207.626 110.456 207.861 111.309 207.928C112.163 207.995 113.021 207.893 113.836 207.629C114.65 207.364 115.404 206.942 116.055 206.386C116.706 205.829 117.241 205.151 117.63 204.388L124.145 191.602Z" fill="white" stroke="black" stroke-width="1.32" stroke-linecap="round" stroke-linejoin="round"/>
</g>
</svg>
